<?xml version="1.0" encoding="UTF-8" standalone="no"?>
<svg
   xmlns:dc="http://purl.org/dc/elements/1.1/"
   xmlns:cc="http://creativecommons.org/ns#"
   xmlns:rdf="http://www.w3.org/1999/02/22-rdf-syntax-ns#"
   xmlns:svg="http://www.w3.org/2000/svg"
   xmlns="http://www.w3.org/2000/svg"
   xmlns:sodipodi="http://sodipodi.sourceforge.net/DTD/sodipodi-0.dtd"
   xmlns:inkscape="http://www.inkscape.org/namespaces/inkscape"
   width="300"
   height="300"
   viewBox="0 0 79.374999 79.374999"
   version="1.1"
   id="svg8"
   inkscape:version="1.0.1 (3bc2e813f5, 2020-09-07)"
   sodipodi:docname="icon.svg"
   inkscape:export-filename="C:\Users\Yewo Mhango\icon.png"
   inkscape:export-xdpi="96"
   inkscape:export-ydpi="96">
  <defs
     id="defs2" />
  <sodipodi:namedview
     id="base"
     pagecolor="#ffffff"
     bordercolor="#666666"
     borderopacity="1.0"
     inkscape:pageopacity="0.0"
     inkscape:pageshadow="2"
     inkscape:zoom="1.4"
     inkscape:cx="78.999957"
     inkscape:cy="163.68907"
     inkscape:document-units="mm"
     inkscape:current-layer="layer1"
     inkscape:document-rotation="0"
     showgrid="false"
     units="px"
     inkscape:snap-bbox="true"
     inkscape:bbox-paths="true"
     inkscape:bbox-nodes="true"
     inkscape:snap-bbox-edge-midpoints="true"
     inkscape:snap-bbox-midpoints="true"
     inkscape:window-width="1366"
     inkscape:window-height="705"
     inkscape:window-x="-8"
     inkscape:window-y="-8"
     inkscape:window-maximized="1"
     inkscape:snap-smooth-nodes="true"
     showguides="true"
     inkscape:guide-bbox="true"
     inkscape:snap-global="true">
    <sodipodi:guide
       position="239.76869,86.055287"
       inkscape:color="rgb(167,0,255)"
       inkscape:label="Measure"
       orientation="-0.5,-0.866026"
       id="guide967" />
  </sodipodi:namedview>
  <metadata
     id="metadata5">
    <rdf:RDF>
      <cc:Work
         rdf:about="">
        <dc:format>image/svg+xml</dc:format>
        <dc:type
           rdf:resource="http://purl.org/dc/dcmitype/StillImage" />
        <dc:title></dc:title>
      </cc:Work>
    </rdf:RDF>
  </metadata>
  <g
     inkscape:label="Layer 1"
     inkscape:groupmode="layer"
     id="layer1">
    <path
       style="fill:none;stroke:#00aa44;stroke-width:4;stroke-linecap:butt;stroke-linejoin:miter;stroke-miterlimit:4;stroke-dasharray:none;stroke-opacity:1"
       d="M 10.01637,-87.879469 25.135416,-109.8021 41.010414,-67.468757"
       id="path888" />
    <circle
       style="fill:#00aa44;stroke:#000000;stroke-width:0;stroke-miterlimit:4;stroke-dasharray:none;stroke-dashoffset:18.8976;stroke-opacity:1;paint-order:stroke fill markers"
       id="path870"
       cx="25.135416"
       cy="-109.8021"
       r="6.5497322" />
    <circle
       style="fill:#00aa44;stroke:#000000;stroke-width:0;stroke-miterlimit:4;stroke-dasharray:none;stroke-dashoffset:18.8976;stroke-opacity:1;paint-order:stroke fill markers"
       id="circle890"
       cx="10.01637"
       cy="-87.879471"
       r="6.5497322" />
    <circle
       style="fill:#00aa44;stroke:#000000;stroke-width:0;stroke-miterlimit:4;stroke-dasharray:none;stroke-dashoffset:18.8976;stroke-opacity:1;paint-order:stroke fill markers"
       id="circle892"
       cx="41.010414"
       cy="-67.468758"
       r="6.5497322" />
    <path
       id="path894"
       style="fill:#0044aa;stroke:none;stroke-width:0.224995px;stroke-linecap:butt;stroke-linejoin:miter;stroke-opacity:1"
       d="m 45.481278,-74.01849 11.648041,-7.446926 -5.511418,-3.182018 -5.511036,-3.181798 z m 12.689086,-9.250068 14.705137,-25.470042 -11.022459,-6.36382 -14.705132,25.470046 z m 15.746179,-27.273182 2.047367,-3.54615 a 4.094621,4.094621 0 0 0 0.03966,-0.0705 4.094621,4.094621 0 0 0 0.03827,-0.0707 4.094621,4.094621 0 0 0 0.03696,-0.072 4.094621,4.094621 0 0 0 0.03525,-0.0725 4.094621,4.094621 0 0 0 0.03411,-0.0731 4.094621,4.094621 0 0 0 0.03237,-0.0737 4.094621,4.094621 0 0 0 0.03108,-0.0749 4.094621,4.094621 0 0 0 0.02953,-0.0748 4.094621,4.094621 0 0 0 0.02836,-0.0755 4.094621,4.094621 0 0 0 0.02682,-0.0763 4.094621,4.094621 0 0 0 0.02508,-0.0769 4.094621,4.094621 0 0 0 0.0237,-0.0772 4.094621,4.094621 0 0 0 0.02199,-0.0776 4.094621,4.094621 0 0 0 0.02059,-0.0779 4.094621,4.094621 0 0 0 0.01888,-0.0784 4.094621,4.094621 0 0 0 0.01758,-0.0786 4.094621,4.094621 0 0 0 0.01575,-0.0792 4.094621,4.094621 0 0 0 0.01443,-0.0795 4.094621,4.094621 0 0 0 0.01264,-0.08 4.094621,4.094621 0 0 0 0.01111,-0.0798 4.094621,4.094621 0 0 0 0.0097,-0.0801 4.094621,4.094621 0 0 0 0.0081,-0.08 4.094621,4.094621 0 0 0 0.0064,-0.0805 4.094621,4.094621 0 0 0 0.0049,-0.0804 4.094621,4.094621 0 0 0 0.003,-0.081 4.094621,4.094621 0 0 0 0.0019,-0.0806 4.094621,4.094621 0 0 0 -5.8e-5,-0.0807 4.094621,4.094621 0 0 0 -0.001,-0.0808 4.094621,4.094621 0 0 0 -0.0033,-0.0805 4.094621,4.094621 0 0 0 -0.0046,-0.0809 4.094621,4.094621 0 0 0 -0.0064,-0.0804 4.094621,4.094621 0 0 0 -0.008,-0.0802 4.094621,4.094621 0 0 0 -0.0093,-0.0805 4.094621,4.094621 0 0 0 -0.01074,-0.0798 4.094621,4.094621 0 0 0 -0.01255,-0.0797 4.094621,4.094621 0 0 0 -0.01424,-0.0794 4.094621,4.094621 0 0 0 -0.01588,-0.079 4.094621,4.094621 0 0 0 -0.01763,-0.0789 4.094621,4.094621 0 0 0 -0.0183,-0.0783 4.094621,4.094621 0 0 0 -0.02031,-0.0782 4.094621,4.094621 0 0 0 -0.02173,-0.0778 4.094621,4.094621 0 0 0 -0.02342,-0.0774 4.094621,4.094621 0 0 0 -0.02499,-0.0767 4.094621,4.094621 0 0 0 -0.02661,-0.0761 4.094621,4.094621 0 0 0 -0.02819,-0.0755 4.094621,4.094621 0 0 0 -0.0295,-0.0753 4.094621,4.094621 0 0 0 -0.03094,-0.0747 4.094621,4.094621 0 0 0 -0.03227,-0.0734 4.094621,4.094621 0 0 0 -0.0338,-0.0733 4.094621,4.094621 0 0 0 -0.03563,-0.0729 4.094621,4.094621 0 0 0 -0.0366,-0.0719 4.094621,4.094621 0 0 0 -0.03809,-0.0712 4.094621,4.094621 0 0 0 -0.03949,-0.0705 4.094621,4.094621 0 0 0 -0.04056,-0.0696 4.094621,4.094621 0 0 0 -0.04254,-0.0687 4.094621,4.094621 0 0 0 -0.04359,-0.0677 4.094621,4.094621 0 0 0 -0.04499,-0.067 4.094621,4.094621 0 0 0 -0.04609,-0.0662 4.094621,4.094621 0 0 0 -0.04747,-0.0654 4.094621,4.094621 0 0 0 -0.04871,-0.0642 4.094621,4.094621 0 0 0 -0.05008,-0.0634 4.094621,4.094621 0 0 0 -0.05142,-0.0621 4.094621,4.094621 0 0 0 -0.05241,-0.0612 4.094621,4.094621 0 0 0 -0.05381,-0.0605 4.094621,4.094621 0 0 0 -0.05474,-0.059 4.094621,4.094621 0 0 0 -0.05611,-0.0583 4.094621,4.094621 0 0 0 -0.05703,-0.0568 4.094621,4.094621 0 0 0 -0.05843,-0.0561 4.094621,4.094621 0 0 0 -0.05933,-0.0545 4.094621,4.094621 0 0 0 -0.06041,-0.0536 4.094621,4.094621 0 0 0 -0.06124,-0.0521 4.094621,4.094621 0 0 0 -0.0629,-0.0511 4.094621,4.094621 0 0 0 -0.06313,-0.0496 4.094621,4.094621 0 0 0 -0.06478,-0.0486 4.094621,4.094621 0 0 0 -0.0651,-0.0472 4.094621,4.094621 0 0 0 -0.06668,-0.0461 4.094621,4.094621 0 0 0 -0.06702,-0.0448 4.094621,4.094621 0 0 0 -0.06786,-0.0433 4.094621,4.094621 0 0 0 -0.06916,-0.0419 4.094621,4.094621 0 0 0 -0.04817,-0.0283 l -3.930147,-2.26908 a 4.094621,4.094621 0 0 0 -0.07051,-0.0397 4.094621,4.094621 0 0 0 -0.07074,-0.0383 4.094621,4.094621 0 0 0 -0.07199,-0.037 4.094621,4.094621 0 0 0 -0.07248,-0.0352 4.094621,4.094621 0 0 0 -0.07315,-0.0341 4.094621,4.094621 0 0 0 -0.07364,-0.0323 4.094621,4.094621 0 0 0 -0.07488,-0.0311 4.094621,4.094621 0 0 0 -0.07483,-0.0295 4.094621,4.094621 0 0 0 -0.07546,-0.0283 4.094621,4.094621 0 0 0 -0.07639,-0.0268 4.094621,4.094621 0 0 0 -0.07688,-0.0251 4.094621,4.094621 0 0 0 -0.07714,-0.0237 4.094621,4.094621 0 0 0 -0.07764,-0.022 4.094621,4.094621 0 0 0 -0.07787,-0.0205 4.094621,4.094621 0 0 0 -0.07839,-0.0189 4.094621,4.094621 0 0 0 -0.07865,-0.0175 4.094621,4.094621 0 0 0 -0.07914,-0.0157 4.094621,4.094621 0 0 0 -0.07949,-0.0144 4.094621,4.094621 0 0 0 -0.07997,-0.0126 4.094621,4.094621 0 0 0 -0.07984,-0.0111 4.094621,4.094621 0 0 0 -0.08016,-0.01 4.094621,4.094621 0 0 0 -0.08001,-0.008 4.094621,4.094621 0 0 0 -0.08051,-0.006 4.094621,4.094621 0 0 0 -0.08044,-0.005 4.094621,4.094621 0 0 0 -0.08094,-0.003 4.094621,4.094621 0 0 0 -0.08062,-0.002 4.094621,4.094621 0 0 0 -0.08071,9e-5 4.094621,4.094621 0 0 0 -0.0808,0.001 4.094621,4.094621 0 0 0 -0.08048,0.003 4.094621,4.094621 0 0 0 -0.08039,0.005 4.094621,4.094621 0 0 0 -0.08066,0.006 4.094621,4.094621 0 0 0 -0.08028,0.008 4.094621,4.094621 0 0 0 -0.08051,0.009 4.094621,4.094621 0 0 0 -0.0798,0.0107 4.094621,4.094621 0 0 0 -0.07979,0.0121 4.094621,4.094621 0 0 0 -0.07952,0.0141 4.094621,4.094621 0 0 0 -0.07899,0.016 4.094621,4.094621 0 0 0 -0.07881,0.018 4.094621,4.094621 0 0 0 -0.07849,0.0179 4.094621,4.094621 0 0 0 -0.0782,0.0203 4.094621,4.094621 0 0 0 -0.07782,0.0217 4.094621,4.094621 0 0 0 -0.07726,0.0238 4.094621,4.094621 0 0 0 -0.07667,0.0247 4.094621,4.094621 0 0 0 -0.07623,0.0266 4.094621,4.094621 0 0 0 -0.07539,0.0285 4.094621,4.094621 0 0 0 -0.07538,0.0295 4.094621,4.094621 0 0 0 -0.07474,0.0309 4.094621,4.094621 0 0 0 -0.07342,0.0322 4.094621,4.094621 0 0 0 -0.07325,0.0338 4.094621,4.094621 0 0 0 -0.07284,0.0357 4.094621,4.094621 0 0 0 -0.0719,0.0366 4.094621,4.094621 0 0 0 -0.07114,0.0381 4.094621,4.094621 0 0 0 -0.0705,0.0395 4.094621,4.094621 0 0 0 -0.06959,0.0406 4.094621,4.094621 0 0 0 -0.06872,0.0425 4.094621,4.094621 0 0 0 -0.06772,0.0436 4.094621,4.094621 0 0 0 -0.06709,0.045 4.094621,4.094621 0 0 0 -0.06617,0.0461 4.094621,4.094621 0 0 0 -0.06546,0.0475 4.094621,4.094621 0 0 0 -0.06414,0.0488 4.094621,4.094621 0 0 0 -0.06343,0.0501 4.094621,4.094621 0 0 0 -0.06211,0.0514 4.094621,4.094621 0 0 0 -0.06123,0.0524 4.094621,4.094621 0 0 0 -0.06048,0.0539 4.094621,4.094621 0 0 0 -0.05902,0.0547 4.094621,4.094621 0 0 0 -0.05831,0.0561 4.094621,4.094621 0 0 0 -0.05673,0.057 4.094621,4.094621 0 0 0 -0.05609,0.0584 4.094621,4.094621 0 0 0 -0.05453,0.0593 4.094621,4.094621 0 0 0 -0.05362,0.0604 4.094621,4.094621 0 0 0 -0.05208,0.0613 4.094621,4.094621 0 0 0 -0.05103,0.0628 4.094621,4.094621 0 0 0 -0.04965,0.0631 4.094621,4.094621 0 0 0 -0.04858,0.0648 4.094621,4.094621 0 0 0 -0.04717,0.0651 4.094621,4.094621 0 0 0 -0.04613,0.0667 4.094621,4.094621 0 0 0 -0.04472,0.0671 4.094621,4.094621 0 0 0 -0.04326,0.0679 4.094621,4.094621 0 0 0 -0.04196,0.0691 4.094621,4.094621 0 0 0 -0.02832,0.0481 l -2.047368,3.54615 3.546155,2.04737 3.930144,2.26907 z" />
    <path
       style="fill:none;stroke:#00aa44;stroke-width:4;stroke-linecap:butt;stroke-linejoin:miter;stroke-miterlimit:4;stroke-dasharray:none;stroke-opacity:1"
       d="m 175.72348,24.373732 15.11904,-21.9226305 15.875,42.3333425"
       id="path941" />
    <circle
       style="fill:#00aa44;stroke:#000000;stroke-width:0;stroke-miterlimit:4;stroke-dasharray:none;stroke-dashoffset:18.8976;stroke-opacity:1;paint-order:stroke fill markers"
       id="circle943"
       cx="190.84253"
       cy="2.4511003"
       r="6.5497322" />
    <circle
       style="fill:#00aa44;stroke:#000000;stroke-width:0;stroke-miterlimit:4;stroke-dasharray:none;stroke-dashoffset:18.8976;stroke-opacity:1;paint-order:stroke fill markers"
       id="circle945"
       cx="175.72348"
       cy="24.37373"
       r="6.5497322" />
    <circle
       style="fill:#00aa44;stroke:#000000;stroke-width:0;stroke-miterlimit:4;stroke-dasharray:none;stroke-dashoffset:18.8976;stroke-opacity:1;paint-order:stroke fill markers"
       id="circle947"
       cx="206.71751"
       cy="44.784443"
       r="6.5497322" />
    <path
       id="path949"
       style="fill:#0044aa;stroke:none;stroke-width:0.414449px;stroke-linecap:butt;stroke-linejoin:miter;stroke-opacity:1"
       d="m 211.18838,38.234711 21.45613,-13.717505 -10.15224,-5.861392 -10.15153,-5.860986 z m 23.37376,-17.038958 27.0874,-46.916732 -20.30377,-11.722385 -27.08738,46.9167394 z m 29.00503,-50.238181 3.77133,-6.532135 a 7.5424391,7.5424391 0 0 0 0.0731,-0.129864 7.5424391,7.5424391 0 0 0 0.0706,-0.130232 7.5424391,7.5424391 0 0 0 0.0681,-0.132626 7.5424391,7.5424391 0 0 0 0.0648,-0.133548 7.5424391,7.5424391 0 0 0 0.0628,-0.134653 7.5424391,7.5424391 0 0 0 0.0597,-0.135758 7.5424391,7.5424391 0 0 0 0.0573,-0.137968 7.5424391,7.5424391 0 0 0 0.0543,-0.137785 7.5424391,7.5424391 0 0 0 0.0523,-0.139073 7.5424391,7.5424391 0 0 0 0.0494,-0.140548 7.5424391,7.5424391 0 0 0 0.0462,-0.141652 7.5424391,7.5424391 0 0 0 0.0437,-0.142205 7.5424391,7.5424391 0 0 0 0.0405,-0.142942 7.5424391,7.5424391 0 0 0 0.038,-0.143495 7.5424391,7.5424391 0 0 0 0.0348,-0.144416 7.5424391,7.5424391 0 0 0 0.0324,-0.144784 7.5424391,7.5424391 0 0 0 0.0289,-0.145889 7.5424391,7.5424391 0 0 0 0.0265,-0.146442 7.5424391,7.5424391 0 0 0 0.0232,-0.147363 7.5424391,7.5424391 0 0 0 0.0204,-0.146994 7.5424391,7.5424391 0 0 0 0.0184,-0.147547 7.5424391,7.5424391 0 0 0 0.0147,-0.147363 7.5424391,7.5424391 0 0 0 0.0111,-0.148284 7.5424391,7.5424391 0 0 0 0.009,-0.1481 7.5424391,7.5424391 0 0 0 0.006,-0.149205 7.5424391,7.5424391 0 0 0 0.004,-0.148468 7.5424391,7.5424391 0 0 0 -1.1e-4,-0.148652 7.5424391,7.5424391 0 0 0 -0.002,-0.148836 7.5424391,7.5424391 0 0 0 -0.006,-0.148284 7.5424391,7.5424391 0 0 0 -0.009,-0.149021 7.5424391,7.5424391 0 0 0 -0.0111,-0.1481 7.5424391,7.5424391 0 0 0 -0.0147,-0.147731 7.5424391,7.5424391 0 0 0 -0.0166,-0.148284 7.5424391,7.5424391 0 0 0 -0.0197,-0.146994 7.5424391,7.5424391 0 0 0 -0.0232,-0.146811 7.5424391,7.5424391 0 0 0 -0.0262,-0.146257 7.5424391,7.5424391 0 0 0 -0.0293,-0.145521 7.5424391,7.5424391 0 0 0 -0.0324,-0.145337 7.5424391,7.5424391 0 0 0 -0.0337,-0.144231 7.5424391,7.5424391 0 0 0 -0.0374,-0.144047 7.5424391,7.5424391 0 0 0 -0.04,-0.143311 7.5424391,7.5424391 0 0 0 -0.0431,-0.142573 7.5424391,7.5424391 0 0 0 -0.046,-0.141285 7.5424391,7.5424391 0 0 0 -0.049,-0.140178 7.5424391,7.5424391 0 0 0 -0.052,-0.139074 7.5424391,7.5424391 0 0 0 -0.0543,-0.138706 7.5424391,7.5424391 0 0 0 -0.0569,-0.1376 7.5424391,7.5424391 0 0 0 -0.0595,-0.135205 7.5424391,7.5424391 0 0 0 -0.0623,-0.135021 7.5424391,7.5424391 0 0 0 -0.0656,-0.134285 7.5424391,7.5424391 0 0 0 -0.0674,-0.132442 7.5424391,7.5424391 0 0 0 -0.0702,-0.131153 7.5424391,7.5424391 0 0 0 -0.0728,-0.129864 7.5424391,7.5424391 0 0 0 -0.0748,-0.128205 7.5424391,7.5424391 0 0 0 -0.0783,-0.126548 7.5424391,7.5424391 0 0 0 -0.0803,-0.124706 7.5424391,7.5424391 0 0 0 -0.0829,-0.123416 7.5424391,7.5424391 0 0 0 -0.0849,-0.121943 7.5424391,7.5424391 0 0 0 -0.0875,-0.120469 7.5424391,7.5424391 0 0 0 -0.0897,-0.118259 7.5424391,7.5424391 0 0 0 -0.0923,-0.116785 7.5424391,7.5424391 0 0 0 -0.0947,-0.114391 7.5424391,7.5424391 0 0 0 -0.0965,-0.112732 7.5424391,7.5424391 0 0 0 -0.0991,-0.111443 7.5424391,7.5424391 0 0 0 -0.10075,-0.10868 7.5424391,7.5424391 0 0 0 -0.10334,-0.107391 7.5424391,7.5424391 0 0 0 -0.105,-0.104628 7.5424391,7.5424391 0 0 0 -0.10757,-0.103338 7.5424391,7.5424391 0 0 0 -0.10924,-0.100391 7.5424391,7.5424391 0 0 0 -0.11126,-0.09873 7.5424391,7.5424391 0 0 0 -0.11273,-0.09597 7.5424391,7.5424391 0 0 0 -0.11586,-0.09413 7.5424391,7.5424391 0 0 0 -0.11623,-0.09137 7.5424391,7.5424391 0 0 0 -0.11937,-0.08952 7.5424391,7.5424391 0 0 0 -0.11991,-0.08694 7.5424391,7.5424391 0 0 0 -0.12287,-0.08492 7.5424391,7.5424391 0 0 0 -0.12342,-0.08252 7.5424391,7.5424391 0 0 0 -0.12507,-0.07976 7.5424391,7.5424391 0 0 0 -0.12747,-0.07718 7.5424391,7.5424391 0 0 0 -0.0888,-0.05213 l -7.23948,-4.179727 a 7.5424391,7.5424391 0 0 0 -0.12987,-0.07313 7.5424391,7.5424391 0 0 0 -0.13023,-0.07055 7.5424391,7.5424391 0 0 0 -0.13262,-0.06815 7.5424391,7.5424391 0 0 0 -0.13355,-0.06484 7.5424391,7.5424391 0 0 0 -0.13465,-0.06281 7.5424391,7.5424391 0 0 0 -0.13558,-0.0595 7.5424391,7.5424391 0 0 0 -0.13797,-0.05729 7.5424391,7.5424391 0 0 0 -0.13778,-0.05434 7.5424391,7.5424391 0 0 0 -0.13907,-0.05213 7.5424391,7.5424391 0 0 0 -0.14074,-0.04937 7.5424391,7.5424391 0 0 0 -0.14165,-0.04623 7.5424391,7.5424391 0 0 0 -0.14202,-0.04366 7.5424391,7.5424391 0 0 0 -0.14294,-0.04052 7.5424391,7.5424391 0 0 0 -0.1435,-0.03776 7.5424391,7.5424391 0 0 0 -0.14441,-0.03481 7.5424391,7.5424391 0 0 0 -0.14497,-0.03224 7.5424391,7.5424391 0 0 0 -0.14571,-0.02892 7.5424391,7.5424391 0 0 0 -0.14644,-0.02652 7.5424391,7.5424391 0 0 0 -0.14736,-0.02321 7.5424391,7.5424391 0 0 0 -0.14699,-0.02045 7.5424391,7.5424391 0 0 0 -0.14774,-0.01842 7.5424391,7.5424391 0 0 0 -0.14736,-0.01474 7.5424391,7.5424391 0 0 0 -0.14828,-0.01105 7.5424391,7.5424391 0 0 0 -0.1481,-0.0092 7.5424391,7.5424391 0 0 0 -0.14902,-0.0055 7.5424391,7.5424391 0 0 0 -0.14847,-0.0037 7.5424391,7.5424391 0 0 0 -0.14865,1.65e-4 7.5424391,7.5424391 0 0 0 -0.14884,0.0018 7.5424391,7.5424391 0 0 0 -0.14828,0.0055 7.5424391,7.5424391 0 0 0 -0.1481,0.0092 7.5424391,7.5424391 0 0 0 -0.14866,0.01105 7.5424391,7.5424391 0 0 0 -0.14791,0.01474 7.5424391,7.5424391 0 0 0 -0.14829,0.01658 7.5424391,7.5424391 0 0 0 -0.14699,0.01971 7.5424391,7.5424391 0 0 0 -0.14699,0.02229 7.5424391,7.5424391 0 0 0 -0.14645,0.02597 7.5424391,7.5424391 0 0 0 -0.14552,0.02947 7.5424391,7.5424391 0 0 0 -0.14515,0.03316 7.5424391,7.5424391 0 0 0 -0.1446,0.03297 7.5424391,7.5424391 0 0 0 -0.14405,0.03739 7.5424391,7.5424391 0 0 0 -0.14331,0.03997 7.5424391,7.5424391 0 0 0 -0.14239,0.04384 7.5424391,7.5424391 0 0 0 -0.14128,0.0455 7.5424391,7.5424391 0 0 0 -0.14036,0.049 7.5424391,7.5424391 0 0 0 -0.13889,0.0525 7.5424391,7.5424391 0 0 0 -0.13889,0.05434 7.5424391,7.5424391 0 0 0 -0.1376,0.05692 7.5424391,7.5424391 0 0 0 -0.13521,0.05931 7.5424391,7.5424391 0 0 0 -0.13502,0.06226 7.5424391,7.5424391 0 0 0 -0.1341,0.06576 7.5424391,7.5424391 0 0 0 -0.13244,0.06742 7.5424391,7.5424391 0 0 0 -0.13097,0.07018 7.5424391,7.5424391 0 0 0 -0.12986,0.07276 7.5424391,7.5424391 0 0 0 -0.12821,0.07479 7.5424391,7.5424391 0 0 0 -0.12655,0.07829 7.5424391,7.5424391 0 0 0 -0.1247,0.08031 7.5424391,7.5424391 0 0 0 -0.1236,0.08289 7.5424391,7.5424391 0 0 0 -0.12195,0.08492 7.5424391,7.5424391 0 0 0 -0.12065,0.0875 7.5424391,7.5424391 0 0 0 -0.11807,0.08989 7.5424391,7.5424391 0 0 0 -0.11679,0.09229 7.5424391,7.5424391 0 0 0 -0.11439,0.09468 7.5424391,7.5424391 0 0 0 -0.11273,0.09652 7.5424391,7.5424391 0 0 0 -0.11145,0.09929 7.5424391,7.5424391 0 0 0 -0.10868,0.100759 7.5424391,7.5424391 0 0 0 -0.10739,0.103338 7.5424391,7.5424391 0 0 0 -0.10444,0.104996 7.5424391,7.5424391 0 0 0 -0.10334,0.107575 7.5424391,7.5424391 0 0 0 -0.10039,0.109233 7.5424391,7.5424391 0 0 0 -0.0987,0.111259 7.5424391,7.5424391 0 0 0 -0.096,0.112917 7.5424391,7.5424391 0 0 0 -0.094,0.11568 7.5424391,7.5424391 0 0 0 -0.0915,0.116232 7.5424391,7.5424391 0 0 0 -0.0895,0.119364 7.5424391,7.5424391 0 0 0 -0.0869,0.119917 7.5424391,7.5424391 0 0 0 -0.0849,0.122863 7.5424391,7.5424391 0 0 0 -0.0823,0.123601 7.5424391,7.5424391 0 0 0 -0.0798,0.125074 7.5424391,7.5424391 0 0 0 -0.0774,0.127285 7.5424391,7.5424391 0 0 0 -0.0521,0.0886 l -3.77133,6.532136 6.53215,3.771329 7.23946,4.179708 z" />
    <path
       style="fill:none;stroke:#000000;stroke-width:0.264583px;stroke-linecap:butt;stroke-linejoin:miter;stroke-opacity:1"
       d="m 284.78077,19.572021 -78.39698,-45.262494 48.75013,-43.479169 54.05059,29.860118 z"
       id="path981" />
    <path
       style="fill:none;stroke:#00aa44;stroke-width:4;stroke-linecap:butt;stroke-linejoin:miter;stroke-miterlimit:4;stroke-dasharray:none;stroke-opacity:1"
       d="m 175.72348,161.95707 15.11904,-21.92264 15.875,42.33335"
       id="path983" />
    <circle
       style="fill:#00aa44;stroke:#000000;stroke-width:0;stroke-miterlimit:4;stroke-dasharray:none;stroke-dashoffset:18.8976;stroke-opacity:1;paint-order:stroke fill markers"
       id="circle985"
       cx="190.84253"
       cy="140.03444"
       r="6.5497322" />
    <circle
       style="fill:#00aa44;stroke:#000000;stroke-width:0;stroke-miterlimit:4;stroke-dasharray:none;stroke-dashoffset:18.8976;stroke-opacity:1;paint-order:stroke fill markers"
       id="circle987"
       cx="175.72348"
       cy="161.95706"
       r="6.5497322" />
    <circle
       style="fill:#00aa44;stroke:#000000;stroke-width:0;stroke-miterlimit:4;stroke-dasharray:none;stroke-dashoffset:18.8976;stroke-opacity:1;paint-order:stroke fill markers"
       id="circle989"
       cx="206.71751"
       cy="182.36778"
       r="6.5497322" />
    <path
       id="path991"
       style="fill:#0044aa;stroke:none;stroke-width:1.56642px;stroke-linecap:butt;stroke-linejoin:miter;stroke-opacity:1"
       d="m 859.9043,469.01562 -50.10938,86.78907 76.73828,44.30469 50.10938,-86.78907 z m -57.35742,99.34376 -4.35547,96.15039 81.0957,-51.84571 -38.37109,-22.15429 z"
       transform="scale(0.26458333)" />
    <g
       id="g1034"
       transform="matrix(0.98330727,0,0,0.98330727,-3.2822185,-10.138997)">
      <path
         id="path1029"
         style="color:#000000;font-style:normal;font-variant:normal;font-weight:normal;font-stretch:normal;font-size:medium;line-height:normal;font-family:sans-serif;font-variant-ligatures:normal;font-variant-position:normal;font-variant-caps:normal;font-variant-numeric:normal;font-variant-alternates:normal;font-variant-east-asian:normal;font-feature-settings:normal;font-variation-settings:normal;text-indent:0;text-align:start;text-decoration:none;text-decoration-line:none;text-decoration-style:solid;text-decoration-color:#000000;letter-spacing:normal;word-spacing:normal;text-transform:none;writing-mode:lr-tb;direction:ltr;text-orientation:mixed;dominant-baseline:auto;baseline-shift:baseline;text-anchor:start;white-space:normal;shape-padding:0;shape-margin:0;inline-size:0;clip-rule:nonzero;display:inline;overflow:visible;visibility:visible;opacity:1;isolation:auto;mix-blend-mode:normal;color-interpolation:sRGB;color-interpolation-filters:linearRGB;solid-color:#000000;solid-opacity:1;vector-effect:none;fill:#00aa44;fill-opacity:1;fill-rule:nonzero;stroke:none;stroke-width:15.1181;stroke-linecap:butt;stroke-linejoin:miter;stroke-miterlimit:4;stroke-dasharray:none;stroke-dashoffset:0;stroke-opacity:1;color-rendering:auto;image-rendering:auto;shape-rendering:auto;text-rendering:auto;enable-background:accumulate;stop-color:#000000;stop-opacity:1"
         d="m 98.4375,104.50977 a 24.754893,24.754893 0 0 0 -24.755859,24.7539 24.754893,24.754893 0 0 0 5.148437,15.11133 l -30.376953,44.05078 a 24.754893,24.754893 0 0 0 -7.158203,-1.05859 24.754893,24.754893 0 0 0 -24.75586,24.7539 24.754893,24.754893 0 0 0 24.75586,24.75586 24.754893,24.754893 0 0 0 24.753906,-24.75586 24.754893,24.754893 0 0 0 -5.148437,-15.11328 l 30.375,-44.04883 a 24.754893,24.754893 0 0 0 7.162109,1.06055 24.754893,24.754893 0 0 0 1.193359,-0.0293 l 43.451171,115.85743 a 24.754893,24.754893 0 0 0 -9.40039,19.41601 24.754893,24.754893 0 0 0 24.75586,24.75586 24.754893,24.754893 0 0 0 24.75391,-24.75586 24.754893,24.754893 0 0 0 -24.75391,-24.7539 24.754893,24.754893 0 0 0 -1.19727,0.0273 L 113.79102,148.68164 a 24.754893,24.754893 0 0 0 9.40039,-19.41797 24.754893,24.754893 0 0 0 -24.75391,-24.7539 z"
         transform="scale(0.26458333)" />
      <path
         id="path1022"
         style="fill:#0044aa;stroke:none;stroke-width:0.414449px;stroke-linecap:butt;stroke-linejoin:miter;stroke-opacity:1"
         d="M 62.718724,18.260381 49.460618,41.223322 69.764287,52.945605 83.022394,29.982664 Z M 47.542907,44.545084 46.390522,69.984874 67.847093,56.267364 57.694742,50.405708 Z" />
    </g>
  </g>
</svg>
